<?xml version="1.0" standalone="no"?>
<svg xmlns="http://www.w3.org/2000/svg" viewBox="0 0 100.182 115.68" width="100.182" height="115.68"><polygon fill="#fe4e01" points="100.182,28.92 100.182,86.76 50.091,115.68 0,86.76 0,28.92 50.091,0"></polygon><g fill="white" color="white" transform="translate(34.321769230769235 22.5) scale(0.7692308)"><svg width="41.0" height="52.0" x="0.0" y="0.0" viewBox="0 0 41 52"><path fill="currentColor" fill-rule="nonzero" d="M31.7 3.62a7.516 7.516 0 0 0-9.58-1.39A10.273 10.273 0 0 0 14.18.09c-1.12.16-.64 1.78.48 1.78 2.11-.27 4.24.27 5.95 1.53-.27.22-.52.45-.77.69-2.01-.35-4.05-.47-6.09-.37-1.14 0-1.16 1.78 0 1.78 1.56-.07 3.12 0 4.66.21a12.21 12.21 0 0 0-2.01 4.17c-1.23 5.04-1.01 10.52-1.3 15.68-.28 5.16-.36 10.09-.27 15.17-2.78-.19-5.49-1-7.92-2.37a13.611 13.611 0 0 1-4.86-6.48c-.46-1.05-1.99-.14-1.55.89a14.46 14.46 0 0 0 9.83 8.79 19.303 19.303 0 0 0-8.56 6.85c-.71.89.55 2.15 1.25 1.26 3.38-4.29 6.98-7.5 12.71-7 1.63.15 3.26.2 4.9.16-.18 2.45-.24 4.91-.18 7.37h-.85c-.49 0-.89.4-.89.89s.4.89.89.89h5c.49 0 .89-.4.89-.89s-.4-.89-.89-.89h-2.37c0-2.49 0-4.98.18-7.48 4.88-.41 9.86-2.01 11.77-6.41 2.33-5.34 1.69-13.09 1.23-18.78-.38-4.67-.28-10.4-3.71-13.91zm1.1 31.2c-1.98 6.12-10.68 6.55-16.24 6.14v-7.39c2.85.55 6.53.12 8.39-2.39 2.17-2.99 1.3-7.85.71-11.2-.2-1.12-1.92-.66-1.78.46.5 2.72 1.1 6.23 0 8.9s-4.52 2.99-6.91 2.53a.785.785 0 0 0-.43 0c.09-3.56.25-7.12.46-10.68.23-3.95 0-8.17 1.3-12 1.5-4.72 7.76-8.81 12.02-4.27 3.31 3.56 3.1 10.36 3.33 14.99.24 4.63.63 10.35-.85 14.91zm6.61-19.98c1.14.07 1.14 1.85 0 1.78h-2.39c-.49 0-.89-.4-.89-.89s.4-.89.89-.89h2.39zm-10.38-3.38c-.61-.48-1.49-.38-1.98.23-.09.11-.16.24-.21.38-.46 1.69 1.92 1.9 2.76.93.33-.4.28-1-.13-1.33a.947.947 0 0 0-.44-.21z"></path></svg></g><path fill="white" fill-rule="nonzero" d="M8.85 22.68L0 22.68L0 0L8.79 0L8.79 2.35L3.16 2.35L3.16 9.86L7.73 9.86L7.73 12.10L3.16 12.10L3.16 20.41L8.85 20.41L8.85 22.68ZM16.58 22.68L11.40 22.68L11.40 0L16.32 0Q18.84 0 20.31 0.77Q21.78 1.54 22.41 3.08Q23.04 4.62 23.04 6.92L23.04 6.92L23.04 15.26Q23.04 17.67 22.41 19.32Q21.78 20.97 20.37 21.83Q18.96 22.68 16.58 22.68L16.58 22.68ZM14.56 2.35L14.56 20.41L16.35 20.41Q18.09 20.41 18.82 19.74Q19.54 19.07 19.70 17.78Q19.85 16.49 19.85 14.67L19.85 14.67L19.85 7.31Q19.85 5.54 19.63 4.45Q19.40 3.36 18.65 2.86Q17.89 2.35 16.27 2.35L16.27 2.35L14.56 2.35Z" transform="translate(38.569, 70.5)"></path></svg>