<?xml version="1.0" standalone="no"?>
<svg xmlns="http://www.w3.org/2000/svg" viewBox="0 0 177.85 29" width="177.85" height="29"><g fill="#fea701" color="#fea701" transform="translate(0, 0) scale(0.5576924)"><svg width="41.0" height="52.0" x="0.0" y="0.0" viewBox="0 0 41 52"><path fill="currentColor" fill-rule="nonzero" d="M31.7 3.62a7.516 7.516 0 0 0-9.58-1.39A10.273 10.273 0 0 0 14.18.09c-1.12.16-.64 1.78.48 1.78 2.11-.27 4.24.27 5.95 1.53-.27.22-.52.45-.77.69-2.01-.35-4.05-.47-6.09-.37-1.14 0-1.16 1.78 0 1.78 1.56-.07 3.12 0 4.66.21a12.21 12.21 0 0 0-2.01 4.17c-1.23 5.04-1.01 10.52-1.3 15.68-.28 5.16-.36 10.09-.27 15.17-2.78-.19-5.49-1-7.92-2.37a13.611 13.611 0 0 1-4.86-6.48c-.46-1.05-1.99-.14-1.55.89a14.46 14.46 0 0 0 9.83 8.79 19.303 19.303 0 0 0-8.56 6.85c-.71.89.55 2.15 1.25 1.26 3.38-4.29 6.98-7.5 12.71-7 1.63.15 3.26.2 4.9.16-.18 2.45-.24 4.91-.18 7.37h-.85c-.49 0-.89.4-.89.89s.4.89.89.89h5c.49 0 .89-.4.89-.89s-.4-.89-.89-.89h-2.37c0-2.49 0-4.98.18-7.48 4.88-.41 9.86-2.01 11.77-6.41 2.33-5.34 1.69-13.09 1.23-18.78-.38-4.67-.28-10.4-3.71-13.91zm1.1 31.2c-1.98 6.12-10.68 6.55-16.24 6.14v-7.39c2.85.55 6.53.12 8.39-2.39 2.17-2.99 1.3-7.85.71-11.2-.2-1.12-1.92-.66-1.78.46.5 2.72 1.1 6.23 0 8.9s-4.52 2.99-6.91 2.53a.785.785 0 0 0-.43 0c.09-3.56.25-7.12.46-10.68.23-3.95 0-8.17 1.3-12 1.5-4.72 7.76-8.81 12.02-4.27 3.31 3.56 3.1 10.36 3.33 14.99.24 4.63.63 10.35-.85 14.91zm6.61-19.98c1.14.07 1.14 1.85 0 1.78h-2.39c-.49 0-.89-.4-.89-.89s.4-.89.89-.89h2.39zm-10.38-3.38c-.61-.48-1.49-.38-1.98.23-.09.11-.16.24-.21.38-.46 1.69 1.92 1.9 2.76.93.33-.4.28-1-.13-1.33a.947.947 0 0 0-.44-.21z"></path></svg></g><line x1="34.866" y1="1" x2="34.866" y2="28" stroke="#fe4e01" stroke-linecap="round"></line><path fill="#fe4e01" fill-rule="nonzero" d="M4.10 19.63L4.10 19.63Q2.47 19.63 1.58 19.00Q0.70 18.36 0.35 17.12Q0 15.89 0 14.09L0 14.09L0 10.92Q0 9.07 0.36 7.85Q0.72 6.62 1.62 6.00Q2.52 5.38 4.10 5.38L4.10 5.38Q5.86 5.38 6.68 6.10Q7.51 6.82 7.78 8.17Q8.04 9.53 8.04 11.42L8.04 11.42L8.04 12.55L2.57 12.55L2.57 15.34Q2.57 16.18 2.72 16.70Q2.88 17.23 3.23 17.48Q3.58 17.74 4.13 17.74L4.13 17.74Q4.70 17.74 5.00 17.46Q5.30 17.18 5.41 16.67Q5.52 16.15 5.52 15.46L5.52 15.46L5.52 14.62L8.02 14.62L8.02 15.14Q8.02 17.23 7.13 18.43Q6.24 19.63 4.10 19.63ZM2.57 10.42L2.57 11.16L5.52 11.16L5.52 9.91Q5.52 9.05 5.42 8.46Q5.33 7.87 5.03 7.57Q4.73 7.27 4.08 7.27L4.08 7.27Q3.46 7.27 3.13 7.56Q2.81 7.85 2.69 8.53Q2.57 9.22 2.57 10.42L2.57 10.42ZM13.18 19.44L10.61 19.44L10.61 0L13.18 0L13.18 19.44ZM19.68 19.63L19.68 19.63Q18.14 19.63 17.26 19.01Q16.37 18.38 16.00 17.23Q15.62 16.08 15.62 14.52L15.62 14.52L15.62 10.49Q15.62 8.93 16.00 7.78Q16.37 6.62 17.26 6.00Q18.14 5.38 19.68 5.38L19.68 5.38Q21.22 5.38 22.09 6.00Q22.97 6.62 23.34 7.78Q23.71 8.93 23.71 10.49L23.71 10.49L23.71 14.52Q23.71 16.08 23.34 17.23Q22.97 18.38 22.09 19.01Q21.22 19.63 19.68 19.63ZM19.68 17.74L19.68 17.74Q20.42 17.74 20.72 17.30Q21.02 16.87 21.08 16.16Q21.14 15.46 21.14 14.69L21.14 14.69L21.14 10.34Q21.14 9.55 21.08 8.86Q21.02 8.16 20.72 7.72Q20.42 7.27 19.68 7.27L19.68 7.27Q18.94 7.27 18.62 7.72Q18.31 8.16 18.25 8.86Q18.19 9.55 18.19 10.34L18.19 10.34L18.19 14.69Q18.19 15.46 18.25 16.16Q18.31 16.87 18.62 17.30Q18.94 17.74 19.68 17.74ZM29.88 19.63L29.88 19.63Q28.34 19.63 27.46 19.01Q26.57 18.38 26.20 17.23Q25.82 16.08 25.82 14.52L25.82 14.52L25.82 10.49Q25.82 8.93 26.20 7.78Q26.57 6.62 27.46 6.00Q28.34 5.38 29.88 5.38L29.88 5.38Q31.42 5.38 32.29 6.00Q33.17 6.62 33.54 7.78Q33.91 8.93 33.91 10.49L33.91 10.49L33.91 14.52Q33.91 16.08 33.54 17.23Q33.17 18.38 32.29 19.01Q31.42 19.63 29.88 19.63ZM29.88 17.74L29.88 17.74Q30.62 17.74 30.92 17.30Q31.22 16.87 31.28 16.16Q31.34 15.46 31.34 14.69L31.34 14.69L31.34 10.34Q31.34 9.55 31.28 8.86Q31.22 8.16 30.92 7.72Q30.62 7.27 29.88 7.27L29.88 7.27Q29.14 7.27 28.82 7.72Q28.51 8.16 28.45 8.86Q28.39 9.55 28.39 10.34L28.39 10.34L28.39 14.69Q28.39 15.46 28.45 16.16Q28.51 16.87 28.82 17.30Q29.14 17.74 29.88 17.74ZM36.84 5.95L35.45 5.95L35.45 0L37.78 0L36.84 5.95ZM42.53 19.63L42.53 19.63Q40.82 19.63 39.79 18.56Q38.76 17.50 38.62 15.74L38.62 15.74L40.75 15.10Q40.94 16.42 41.40 17.08Q41.86 17.74 42.74 17.74L42.74 17.74Q43.44 17.74 43.80 17.34Q44.16 16.94 44.16 16.27L44.16 16.27Q44.16 15.67 43.90 15.19Q43.63 14.71 43.03 14.21L43.03 14.21L40.66 12.17Q39.94 11.54 39.44 10.78Q38.95 10.01 38.95 8.78L38.95 8.78Q38.95 7.68 39.40 6.92Q39.84 6.17 40.64 5.77Q41.45 5.38 42.53 5.38L42.53 5.38Q44.18 5.38 45.06 6.44Q45.94 7.51 46.06 9.02L46.06 9.02L44.33 9.67Q44.23 8.95 44.04 8.41Q43.85 7.87 43.51 7.57Q43.18 7.27 42.62 7.27L42.62 7.27Q42.00 7.27 41.63 7.69Q41.26 8.11 41.26 8.69L41.26 8.69Q41.26 9.05 41.41 9.40Q41.57 9.74 41.95 10.08L41.95 10.08L44.40 12.34Q44.90 12.79 45.35 13.32Q45.79 13.85 46.08 14.52Q46.37 15.19 46.37 16.08L46.37 16.08Q46.37 17.26 45.89 18.05Q45.41 18.84 44.54 19.24Q43.68 19.63 42.53 19.63ZM57.00 19.63L57.00 19.63Q55.25 19.63 54.38 18.35Q53.52 17.06 53.52 13.99L53.52 13.99L53.52 11.30Q53.52 9.72 53.78 8.36Q54.05 7.01 54.78 6.19Q55.51 5.38 56.93 5.38L56.93 5.38Q57.62 5.38 58.20 5.69Q58.78 6.00 59.23 6.46L59.23 6.46L59.23 0L61.80 0L61.80 19.44L59.23 19.44L59.23 18.55Q58.78 19.03 58.24 19.33Q57.70 19.63 57.00 19.63ZM57.65 17.62L57.65 17.62Q58.01 17.62 58.42 17.48Q58.82 17.35 59.23 17.09L59.23 17.09L59.23 7.99Q58.90 7.75 58.49 7.57Q58.08 7.39 57.60 7.39L57.60 7.39Q56.71 7.39 56.40 8.24Q56.09 9.10 56.09 10.30L56.09 10.30L56.09 14.21Q56.09 15.17 56.20 15.95Q56.30 16.73 56.64 17.17Q56.98 17.62 57.65 17.62ZM68.23 19.63L68.23 19.63Q66.60 19.63 65.71 19.00Q64.82 18.36 64.48 17.12Q64.13 15.89 64.13 14.09L64.13 14.09L64.13 10.92Q64.13 9.07 64.49 7.85Q64.85 6.62 65.75 6.00Q66.65 5.38 68.23 5.38L68.23 5.38Q69.98 5.38 70.81 6.10Q71.64 6.82 71.90 8.17Q72.17 9.53 72.17 11.42L72.17 11.42L72.17 12.55L66.70 12.55L66.70 15.34Q66.70 16.18 66.85 16.70Q67.01 17.23 67.36 17.48Q67.70 17.74 68.26 17.74L68.26 17.74Q68.83 17.74 69.13 17.46Q69.43 17.18 69.54 16.67Q69.65 16.15 69.65 15.46L69.65 15.46L69.65 14.62L72.14 14.62L72.14 15.14Q72.14 17.23 71.26 18.43Q70.37 19.63 68.23 19.63ZM66.70 10.42L66.70 11.16L69.65 11.16L69.65 9.91Q69.65 9.05 69.55 8.46Q69.46 7.87 69.16 7.57Q68.86 7.27 68.21 7.27L68.21 7.27Q67.58 7.27 67.26 7.56Q66.94 7.85 66.82 8.53Q66.70 9.22 66.70 10.42L66.70 10.42ZM79.44 19.44L76.30 19.44L73.56 5.57L76.15 5.57L77.86 16.73L79.58 5.57L82.08 5.57L79.44 19.44ZM86.66 19.44L83.95 19.44L83.95 0L88.78 0Q90.53 0 91.57 0.64Q92.62 1.27 93.10 2.47Q93.58 3.67 93.58 5.38L93.58 5.38Q93.58 6.91 93.04 8.04Q92.50 9.17 91.44 9.78Q90.38 10.39 88.80 10.39L88.80 10.39L86.66 10.39L86.66 19.44ZM86.66 1.94L86.66 8.45L87.91 8.45Q89.09 8.45 89.76 8.18Q90.43 7.92 90.72 7.26Q91.01 6.60 91.01 5.40L91.01 5.40Q91.01 4.01 90.80 3.26Q90.60 2.52 89.95 2.23Q89.30 1.94 87.94 1.94L87.94 1.94L86.66 1.94ZM97.75 19.63L97.75 19.63Q96.94 19.63 96.31 19.16Q95.69 18.70 95.33 17.96Q94.97 17.23 94.97 16.42L94.97 16.42Q94.97 15.12 95.40 14.23Q95.83 13.34 96.59 12.73Q97.34 12.12 98.34 11.66Q99.34 11.21 100.44 10.78L100.44 10.78L100.44 9.79Q100.44 8.95 100.34 8.40Q100.25 7.85 99.95 7.57Q99.65 7.30 99.05 7.30L99.05 7.30Q98.52 7.30 98.20 7.54Q97.87 7.78 97.73 8.22Q97.58 8.66 97.58 9.26L97.58 9.26L97.58 9.96L95.04 9.86Q95.09 7.56 96.10 6.47Q97.10 5.38 99.22 5.38L99.22 5.38Q101.28 5.38 102.14 6.50Q103.01 7.63 103.01 9.77L103.01 9.77L103.01 16.10Q103.01 16.75 103.04 17.35Q103.08 17.95 103.14 18.47Q103.20 18.98 103.25 19.44L103.25 19.44L100.90 19.44Q100.82 19.06 100.72 18.47Q100.61 17.88 100.56 17.40L100.56 17.40Q100.32 18.22 99.64 18.92Q98.95 19.63 97.75 19.63ZM98.76 17.42L98.76 17.42Q99.14 17.42 99.48 17.21Q99.82 16.99 100.08 16.72Q100.34 16.44 100.44 16.27L100.44 16.27L100.44 12.34Q99.84 12.67 99.31 13.01Q98.78 13.34 98.39 13.72Q97.99 14.09 97.76 14.56Q97.54 15.02 97.54 15.62L97.54 15.62Q97.54 16.46 97.85 16.94Q98.16 17.42 98.76 17.42ZM109.08 23.74L109.08 23.74Q107.83 23.74 106.82 23.47Q105.82 23.21 105.24 22.63Q104.66 22.06 104.66 21.12L104.66 21.12Q104.66 20.45 104.95 19.94Q105.24 19.44 105.70 19.07Q106.15 18.70 106.66 18.46L106.66 18.46Q105.98 18.26 105.65 17.84Q105.31 17.42 105.31 16.97L105.31 16.97Q105.31 16.20 105.72 15.65Q106.13 15.10 106.85 14.45L106.85 14.45Q106.06 13.85 105.65 12.91Q105.24 11.98 105.24 10.32L105.24 10.32Q105.24 8.69 105.68 7.60Q106.13 6.50 107.00 5.94Q107.88 5.38 109.15 5.38L109.15 5.38Q110.28 5.38 110.96 5.76Q111.65 6.14 112.01 6.91L112.01 6.91Q112.13 6.72 112.66 6.25Q113.18 5.78 113.88 5.47L113.88 5.47L114.26 5.30L114.91 6.96Q114.60 7.01 114.08 7.19Q113.57 7.37 113.12 7.55Q112.68 7.73 112.56 7.85L112.56 7.85Q112.73 8.26 112.86 9.02Q112.99 9.79 112.99 10.39L112.99 10.39Q112.99 11.81 112.63 12.89Q112.27 13.97 111.44 14.58Q110.62 15.19 109.15 15.19L109.15 15.19Q108.84 15.19 108.48 15.14Q108.12 15.10 107.83 15.02L107.83 15.02Q107.69 15.24 107.53 15.53Q107.38 15.82 107.38 16.08L107.38 16.08Q107.38 16.34 107.65 16.50Q107.93 16.66 108.53 16.70L108.53 16.70L110.69 16.90Q112.32 17.04 113.11 17.88Q113.90 18.72 113.90 20.28L113.90 20.28Q113.90 21.41 113.38 22.19Q112.85 22.97 111.78 23.35Q110.71 23.74 109.08 23.74ZM109.27 21.72L109.27 21.72Q110.64 21.72 111.29 21.40Q111.94 21.07 111.94 20.35L111.94 20.35Q111.94 19.92 111.78 19.63Q111.62 19.34 111.22 19.18Q110.81 19.01 110.04 18.94L110.04 18.94L107.86 18.74Q107.59 19.01 107.35 19.27Q107.11 19.54 106.97 19.84Q106.82 20.14 106.82 20.47L106.82 20.47Q106.82 21.10 107.35 21.41Q107.88 21.72 109.27 21.72ZM109.15 13.39L109.15 13.39Q109.70 13.39 110.03 13.19Q110.35 12.98 110.52 12.59Q110.69 12.19 110.75 11.62Q110.81 11.04 110.81 10.32L110.81 10.32Q110.81 9.60 110.75 9.01Q110.69 8.42 110.53 8.00Q110.38 7.58 110.05 7.37Q109.73 7.15 109.18 7.15L109.18 7.15Q108.65 7.15 108.30 7.37Q107.95 7.58 107.78 7.98Q107.62 8.38 107.54 8.96Q107.47 9.55 107.47 10.32L107.47 10.32Q107.47 10.97 107.53 11.53Q107.59 12.10 107.77 12.50Q107.95 12.91 108.29 13.15Q108.62 13.39 109.15 13.39ZM119.66 19.63L119.66 19.63Q118.03 19.63 117.14 19.00Q116.26 18.36 115.91 17.12Q115.56 15.89 115.56 14.09L115.56 14.09L115.56 10.92Q115.56 9.07 115.92 7.85Q116.28 6.62 117.18 6.00Q118.08 5.38 119.66 5.38L119.66 5.38Q121.42 5.38 122.24 6.10Q123.07 6.82 123.34 8.17Q123.60 9.53 123.60 11.42L123.60 11.42L123.60 12.55L118.13 12.55L118.13 15.34Q118.13 16.18 118.28 16.70Q118.44 17.23 118.79 17.48Q119.14 17.74 119.69 17.74L119.69 17.74Q120.26 17.74 120.56 17.46Q120.86 17.18 120.97 16.67Q121.08 16.15 121.08 15.46L121.08 15.46L121.08 14.62L123.58 14.62L123.58 15.14Q123.58 17.23 122.69 18.43Q121.80 19.63 119.66 19.63ZM118.13 10.42L118.13 11.16L121.08 11.16L121.08 9.91Q121.08 9.05 120.98 8.46Q120.89 7.87 120.59 7.57Q120.29 7.27 119.64 7.27L119.64 7.27Q119.02 7.27 118.69 7.56Q118.37 7.85 118.25 8.53Q118.13 9.22 118.13 10.42L118.13 10.42ZM129.14 19.63L129.14 19.63Q127.44 19.63 126.41 18.56Q125.38 17.50 125.23 15.74L125.23 15.74L127.37 15.10Q127.56 16.42 128.02 17.08Q128.47 17.74 129.36 17.74L129.36 17.74Q130.06 17.74 130.42 17.34Q130.78 16.94 130.78 16.27L130.78 16.27Q130.78 15.67 130.51 15.19Q130.25 14.71 129.65 14.21L129.65 14.21L127.27 12.17Q126.55 11.54 126.06 10.78Q125.57 10.01 125.57 8.78L125.57 8.78Q125.57 7.68 126.01 6.92Q126.46 6.17 127.26 5.77Q128.06 5.38 129.14 5.38L129.14 5.38Q130.80 5.38 131.68 6.44Q132.55 7.51 132.67 9.02L132.67 9.02L130.94 9.67Q130.85 8.95 130.66 8.41Q130.46 7.87 130.13 7.57Q129.79 7.27 129.24 7.27L129.24 7.27Q128.62 7.27 128.24 7.69Q127.87 8.11 127.87 8.69L127.87 8.69Q127.87 9.05 128.03 9.40Q128.18 9.74 128.57 10.08L128.57 10.08L131.02 12.34Q131.52 12.79 131.96 13.32Q132.41 13.85 132.70 14.52Q132.98 15.19 132.98 16.08L132.98 16.08Q132.98 17.26 132.50 18.05Q132.02 18.84 131.16 19.24Q130.30 19.63 129.14 19.63Z" transform="translate(44.866, 4.78)"></path></svg>